<?xml version="1.0" encoding="utf-8"?>
<!-- Generator: Adobe Illustrator 28.1.0, SVG Export Plug-In . SVG Version: 6.00 Build 0)  -->
<svg version="1.1" xmlns="http://www.w3.org/2000/svg" xmlns:xlink="http://www.w3.org/1999/xlink" x="0px" y="0px"
	 viewBox="0 0 434.27 203" style="enable-background:new 0 0 434.27 203;" xml:space="preserve">
<style type="text/css">
	.st0{fill:#7EC8E3;}
</style>
<g id="Layer_3">
</g>
<g id="Vrstva_1">
</g>
<g id="Layer_2">
	<g>
		<polygon class="st0" points="309.62,77.12 298.05,88.7 338.87,129.32 369.53,98.45 358.76,87.69 339.47,106.97 		"/>
		<path class="st0" d="M101.36,68.63c-5.22,0-10.77,2.93-15.53,7.68c-6.84,6.76-13.68,13.53-20.51,20.31
			c13.68,13.67,27.35,27.34,41.03,41.02c6.84-6.84,13.67-13.67,20.51-20.51c9.75-9.75,10.56-21.12,4.27-27.41
			c-3.29-3.28-6.64-4.58-10.06-4.58c-2.04,0-4.1,0.46-6.18,1.24c1-4.7,0.19-9.46-3.87-13.52C108.17,69.94,104.84,68.63,101.36,68.63
			 M92.93,102.57c-2.76-2.78-5.53-5.55-8.29-8.33c2.63-2.59,5.26-5.18,7.89-7.78c1.93-1.93,3.8-2.85,5.5-2.85
			c1.33,0,2.56,0.56,3.63,1.63c2.64,2.64,2.03,6.1-1.02,9.34C98.08,97.25,95.5,99.92,92.93,102.57 M108.42,118.17
			c-2.78-2.8-5.56-5.59-8.33-8.39c3.23-3.23,6.47-6.47,9.71-9.71c1.71-1.71,3.42-2.52,5.04-2.52c1.46,0,2.85,0.66,4.1,1.91
			c2.64,2.44,2.03,6.3-0.61,8.94C115.02,111.65,111.72,114.91,108.42,118.17"/>
		<polygon class="st0" points="101.87,0.16 0.54,101.49 101.87,202.83 171.33,133.58 159.54,121.8 101.87,179.27 24.1,101.49
			101.87,23.72 159.54,81.19 171.33,69.41 		"/>
		<polygon class="st0" points="216,63.72 180.27,99.46 191.23,110.22 203.31,98.14 233.47,128.3 244.84,116.93 214.68,86.77
			226.77,74.69 		"/>
		<polygon class="st0" points="217.22,0.16 171.33,46.06 183.11,57.83 217.22,23.72 274.9,81.39 286.68,69.61 		"/>
		<polygon class="st0" points="217.22,179.27 183.11,145.36 171.33,157.14 217.22,202.83 286.68,133.58 274.9,121.8 		"/>
		<polygon class="st0" points="332.77,0.16 286.87,45.85 298.66,57.63 332.77,23.72 410.55,101.49 332.77,179.27 298.66,145.16
			286.87,156.93 332.77,202.83 434.1,101.49 		"/>
		<polygon class="st0" points="309.62,77.12 298.05,88.7 338.87,129.32 369.53,98.45 358.76,87.69 339.47,106.97 		"/>
		<path class="st0" d="M101.36,68.63c-5.22,0-10.77,2.93-15.53,7.68c-6.84,6.76-13.68,13.53-20.51,20.31
			c13.68,13.67,27.35,27.34,41.03,41.02c6.84-6.84,13.67-13.67,20.51-20.51c9.75-9.75,10.56-21.12,4.27-27.41
			c-3.29-3.28-6.64-4.58-10.06-4.58c-2.04,0-4.1,0.46-6.18,1.24c1-4.7,0.19-9.46-3.87-13.52C108.17,69.94,104.84,68.63,101.36,68.63
			 M92.93,102.57c-2.76-2.78-5.53-5.55-8.29-8.33c2.63-2.59,5.26-5.18,7.89-7.78c1.93-1.93,3.8-2.85,5.5-2.85
			c1.33,0,2.56,0.56,3.63,1.63c2.64,2.64,2.03,6.1-1.02,9.34C98.08,97.25,95.5,99.92,92.93,102.57 M108.42,118.17
			c-2.78-2.8-5.56-5.59-8.33-8.39c3.23-3.23,6.47-6.47,9.71-9.71c1.71-1.71,3.42-2.52,5.04-2.52c1.46,0,2.85,0.66,4.1,1.91
			c2.64,2.44,2.03,6.3-0.61,8.94C115.02,111.65,111.72,114.91,108.42,118.17"/>
		<polygon class="st0" points="101.87,0.16 0.54,101.49 101.87,202.83 171.33,133.58 159.54,121.8 101.87,179.27 24.1,101.49
			101.87,23.72 159.54,81.19 171.33,69.41 		"/>
		<polygon class="st0" points="216,63.72 180.27,99.46 191.23,110.22 203.31,98.14 233.47,128.3 244.84,116.93 214.68,86.77
			226.77,74.69 		"/>
		<polygon class="st0" points="217.22,0.16 171.33,46.06 183.11,57.83 217.22,23.72 274.9,81.39 286.68,69.61 		"/>
		<polygon class="st0" points="217.22,179.27 183.11,145.36 171.33,157.14 217.22,202.83 286.68,133.58 274.9,121.8 		"/>
		<polygon class="st0" points="332.77,0.16 286.87,45.85 298.66,57.63 332.77,23.72 410.55,101.49 332.77,179.27 298.66,145.16
			286.87,156.93 332.77,202.83 434.1,101.49 		"/>
		<polygon class="st0" points="309.62,77.12 298.05,88.7 338.87,129.32 369.53,98.45 358.76,87.69 339.47,106.97 		"/>
		<path class="st0" d="M101.36,68.63c-5.22,0-10.77,2.93-15.53,7.68c-6.84,6.76-13.68,13.53-20.51,20.31
			c13.68,13.67,27.35,27.34,41.03,41.02c6.84-6.84,13.67-13.67,20.51-20.51c9.75-9.75,10.56-21.12,4.27-27.41
			c-3.29-3.28-6.64-4.58-10.06-4.58c-2.04,0-4.1,0.46-6.18,1.24c1-4.7,0.19-9.46-3.87-13.52C108.17,69.94,104.84,68.63,101.36,68.63
			 M92.93,102.57c-2.76-2.78-5.53-5.55-8.29-8.33c2.63-2.59,5.26-5.18,7.89-7.78c1.93-1.93,3.8-2.85,5.5-2.85
			c1.33,0,2.56,0.56,3.63,1.63c2.64,2.64,2.03,6.1-1.02,9.34C98.08,97.25,95.5,99.92,92.93,102.57 M108.42,118.17
			c-2.78-2.8-5.56-5.59-8.33-8.39c3.23-3.23,6.47-6.47,9.71-9.71c1.71-1.71,3.42-2.52,5.04-2.52c1.46,0,2.85,0.66,4.1,1.91
			c2.64,2.44,2.03,6.3-0.61,8.94C115.02,111.65,111.72,114.91,108.42,118.17"/>
		<polygon class="st0" points="101.87,0.16 0.54,101.49 101.87,202.83 171.33,133.58 159.54,121.8 101.87,179.27 24.1,101.49
			101.87,23.72 159.54,81.19 171.33,69.41 		"/>
		<polygon class="st0" points="216,63.72 180.27,99.46 191.23,110.22 203.31,98.14 233.47,128.3 244.84,116.93 214.68,86.77
			226.77,74.69 		"/>
		<polygon class="st0" points="217.22,0.16 171.33,46.06 183.11,57.83 217.22,23.72 274.9,81.39 286.68,69.61 		"/>
		<polygon class="st0" points="217.22,179.27 183.11,145.36 171.33,157.14 217.22,202.83 286.68,133.58 274.9,121.8 		"/>
		<polygon class="st0" points="332.77,0.16 286.87,45.85 298.66,57.63 332.77,23.72 410.55,101.49 332.77,179.27 298.66,145.16
			286.87,156.93 332.77,202.83 434.1,101.49 		"/>
	</g>
</g>
</svg>
